<svg xmlns="http://www.w3.org/2000/svg" width="978" height="580" viewBox="0 0 978 580" font-family="-apple-system, BlinkMacSystemFont, &#x27;Segoe UI&#x27;, &#x27;Malgun Gothic&#x27;, &#x27;Apple SD Gothic Neo&#x27;, &#x27;Noto Sans KR&#x27;, Helvetica, Arial, sans-serif">
<rect width="978" height="580" rx="12" fill="#0d1117" stroke="#3d444d"/>
<text x="20" y="38" font-size="20" font-weight="700" fill="#f0f6fc">2026년 9월</text>
<text x="958" y="38" font-size="11" text-anchor="end" fill="#9198a1">갱신 09-10 05:37 KST</text>
<text x="87" y="76" font-size="12" font-weight="600" text-anchor="middle" fill="#9198a1">월</text>
<text x="221" y="76" font-size="12" font-weight="600" text-anchor="middle" fill="#9198a1">화</text>
<text x="355" y="76" font-size="12" font-weight="600" text-anchor="middle" fill="#9198a1">수</text>
<text x="489" y="76" font-size="12" font-weight="600" text-anchor="middle" fill="#9198a1">목</text>
<text x="623" y="76" font-size="12" font-weight="600" text-anchor="middle" fill="#9198a1">금</text>
<text x="757" y="76" font-size="12" font-weight="600" text-anchor="middle" fill="#9198a1">토</text>
<text x="891" y="76" font-size="12" font-weight="600" text-anchor="middle" fill="#9198a1">일</text>
<g opacity="0.45">
<rect x="22" y="88" width="130" height="88" rx="8" fill="#151b23" stroke="#3d444d"/>
<text x="32" y="108" font-size="13" font-weight="500" fill="#6e7681">31</text>
</g>
<g opacity="1">
<rect x="156" y="88" width="130" height="88" rx="8" fill="#151b23" stroke="#3d444d"/>
<text x="166" y="108" font-size="13" font-weight="500" fill="#f0f6fc">1</text>
<rect x="163" y="118" width="112" height="18" rx="5" fill="#4493f8" opacity="0.92"/>
<text x="169" y="131" font-size="10.5" fill="#0d1117" clip-path="inset(0 0 0 0)">바쁨</text>
</g>
<g opacity="1">
<rect x="290" y="88" width="130" height="88" rx="8" fill="#151b23" stroke="#3d444d"/>
<text x="300" y="108" font-size="13" font-weight="500" fill="#f0f6fc">2</text>
</g>
<g opacity="1">
<rect x="424" y="88" width="130" height="88" rx="8" fill="#151b23" stroke="#3d444d"/>
<text x="434" y="108" font-size="13" font-weight="500" fill="#f0f6fc">3</text>
</g>
<g opacity="1">
<rect x="558" y="88" width="130" height="88" rx="8" fill="#151b23" stroke="#3d444d"/>
<text x="568" y="108" font-size="13" font-weight="500" fill="#f0f6fc">4</text>
</g>
<g opacity="1">
<rect x="692" y="88" width="130" height="88" rx="8" fill="#151b23" stroke="#3d444d"/>
<text x="702" y="108" font-size="13" font-weight="500" fill="#f0f6fc">5</text>
</g>
<g opacity="1">
<rect x="826" y="88" width="130" height="88" rx="8" fill="#151b23" stroke="#3d444d"/>
<text x="836" y="108" font-size="13" font-weight="500" fill="#f0f6fc">6</text>
<rect x="833" y="118" width="112" height="18" rx="5" fill="#4493f8" opacity="0.92"/>
<text x="839" y="131" font-size="10.5" fill="#0d1117" clip-path="inset(0 0 0 0)">바쁨</text>
</g>
<g opacity="1">
<rect x="22" y="180" width="130" height="88" rx="8" fill="#151b23" stroke="#3d444d"/>
<text x="32" y="200" font-size="13" font-weight="500" fill="#f0f6fc">7</text>
</g>
<g opacity="1">
<rect x="156" y="180" width="130" height="88" rx="8" fill="#151b23" stroke="#3d444d"/>
<text x="166" y="200" font-size="13" font-weight="500" fill="#f0f6fc">8</text>
</g>
<g opacity="1">
<rect x="290" y="180" width="130" height="88" rx="8" fill="#151b23" stroke="#3d444d"/>
<text x="300" y="200" font-size="13" font-weight="500" fill="#f0f6fc">9</text>
</g>
<g opacity="1">
<rect x="424" y="180" width="130" height="88" rx="8" fill="#121d2f" stroke="#4493f8"/>
<text x="434" y="200" font-size="13" font-weight="700" fill="#f0f6fc">10</text>
</g>
<g opacity="1">
<rect x="558" y="180" width="130" height="88" rx="8" fill="#151b23" stroke="#3d444d"/>
<text x="568" y="200" font-size="13" font-weight="500" fill="#f0f6fc">11</text>
</g>
<g opacity="1">
<rect x="692" y="180" width="130" height="88" rx="8" fill="#151b23" stroke="#3d444d"/>
<text x="702" y="200" font-size="13" font-weight="500" fill="#f0f6fc">12</text>
</g>
<g opacity="1">
<rect x="826" y="180" width="130" height="88" rx="8" fill="#151b23" stroke="#3d444d"/>
<text x="836" y="200" font-size="13" font-weight="500" fill="#f0f6fc">13</text>
</g>
<g opacity="1">
<rect x="22" y="272" width="130" height="88" rx="8" fill="#151b23" stroke="#3d444d"/>
<text x="32" y="292" font-size="13" font-weight="500" fill="#f0f6fc">14</text>
</g>
<g opacity="1">
<rect x="156" y="272" width="130" height="88" rx="8" fill="#151b23" stroke="#3d444d"/>
<text x="166" y="292" font-size="13" font-weight="500" fill="#f0f6fc">15</text>
</g>
<g opacity="1">
<rect x="290" y="272" width="130" height="88" rx="8" fill="#151b23" stroke="#3d444d"/>
<text x="300" y="292" font-size="13" font-weight="500" fill="#f0f6fc">16</text>
</g>
<g opacity="1">
<rect x="424" y="272" width="130" height="88" rx="8" fill="#151b23" stroke="#3d444d"/>
<text x="434" y="292" font-size="13" font-weight="500" fill="#f0f6fc">17</text>
</g>
<g opacity="1">
<rect x="558" y="272" width="130" height="88" rx="8" fill="#151b23" stroke="#3d444d"/>
<text x="568" y="292" font-size="13" font-weight="500" fill="#f0f6fc">18</text>
</g>
<g opacity="1">
<rect x="692" y="272" width="130" height="88" rx="8" fill="#151b23" stroke="#3d444d"/>
<text x="702" y="292" font-size="13" font-weight="500" fill="#f0f6fc">19</text>
</g>
<g opacity="1">
<rect x="826" y="272" width="130" height="88" rx="8" fill="#151b23" stroke="#3d444d"/>
<text x="836" y="292" font-size="13" font-weight="500" fill="#f0f6fc">20</text>
</g>
<g opacity="1">
<rect x="22" y="364" width="130" height="88" rx="8" fill="#151b23" stroke="#3d444d"/>
<text x="32" y="384" font-size="13" font-weight="500" fill="#f0f6fc">21</text>
</g>
<g opacity="1">
<rect x="156" y="364" width="130" height="88" rx="8" fill="#151b23" stroke="#3d444d"/>
<text x="166" y="384" font-size="13" font-weight="500" fill="#f0f6fc">22</text>
</g>
<g opacity="1">
<rect x="290" y="364" width="130" height="88" rx="8" fill="#151b23" stroke="#3d444d"/>
<text x="300" y="384" font-size="13" font-weight="500" fill="#f0f6fc">23</text>
</g>
<g opacity="1">
<rect x="424" y="364" width="130" height="88" rx="8" fill="#151b23" stroke="#3d444d"/>
<text x="434" y="384" font-size="13" font-weight="500" fill="#f0f6fc">24</text>
</g>
<g opacity="1">
<rect x="558" y="364" width="130" height="88" rx="8" fill="#151b23" stroke="#3d444d"/>
<text x="568" y="384" font-size="13" font-weight="500" fill="#f0f6fc">25</text>
</g>
<g opacity="1">
<rect x="692" y="364" width="130" height="88" rx="8" fill="#151b23" stroke="#3d444d"/>
<text x="702" y="384" font-size="13" font-weight="500" fill="#f0f6fc">26</text>
</g>
<g opacity="1">
<rect x="826" y="364" width="130" height="88" rx="8" fill="#151b23" stroke="#3d444d"/>
<text x="836" y="384" font-size="13" font-weight="500" fill="#f0f6fc">27</text>
</g>
<g opacity="1">
<rect x="22" y="456" width="130" height="88" rx="8" fill="#151b23" stroke="#3d444d"/>
<text x="32" y="476" font-size="13" font-weight="500" fill="#f0f6fc">28</text>
</g>
<g opacity="1">
<rect x="156" y="456" width="130" height="88" rx="8" fill="#151b23" stroke="#3d444d"/>
<text x="166" y="476" font-size="13" font-weight="500" fill="#f0f6fc">29</text>
</g>
<g opacity="1">
<rect x="290" y="456" width="130" height="88" rx="8" fill="#151b23" stroke="#3d444d"/>
<text x="300" y="476" font-size="13" font-weight="500" fill="#f0f6fc">30</text>
</g>
<g opacity="0.45">
<rect x="424" y="456" width="130" height="88" rx="8" fill="#151b23" stroke="#3d444d"/>
<text x="434" y="476" font-size="13" font-weight="500" fill="#6e7681">1</text>
</g>
<g opacity="0.45">
<rect x="558" y="456" width="130" height="88" rx="8" fill="#151b23" stroke="#3d444d"/>
<text x="568" y="476" font-size="13" font-weight="500" fill="#6e7681">2</text>
</g>
<g opacity="0.45">
<rect x="692" y="456" width="130" height="88" rx="8" fill="#151b23" stroke="#3d444d"/>
<text x="702" y="476" font-size="13" font-weight="500" fill="#6e7681">3</text>
</g>
<g opacity="0.45">
<rect x="826" y="456" width="130" height="88" rx="8" fill="#151b23" stroke="#3d444d"/>
<text x="836" y="476" font-size="13" font-weight="500" fill="#6e7681">4</text>
</g>
</svg>